<svg xmlns="http://www.w3.org/2000/svg" xmlns:xlink="http://www.w3.org/1999/xlink" viewBox="0 0 19 24" overflow="visible"><path d="M 2.067 1.449 C 2.207 1.546 2.34 1.644 2.471 1.739 C 2.777 1.966 3.065 2.178 3.38 2.332 C 3.57 2.425 3.951 2.362 4.116 2.213 C 7.393 -0.734 11.617 -0.738 14.841 2.203 C 15.005 2.353 15.381 2.427 15.573 2.338 C 15.882 2.195 16.164 1.991 16.465 1.773 C 16.593 1.681 16.725 1.586 16.863 1.492 C 16.828 1.571 16.795 1.649 16.764 1.726 C 16.696 1.887 16.632 2.043 16.547 2.186 C 15.206 4.461 13.298 6.095 11.072 7.356 C 10.934 7.435 10.676 7.392 10.52 7.311 C 9.822 6.948 9.147 6.953 8.45 7.309 C 8.292 7.389 8.035 7.437 7.899 7.36 C 5.642 6.072 3.703 4.418 2.365 2.088 C 2.29 1.958 2.229 1.818 2.166 1.67 C 2.134 1.598 2.102 1.525 2.067 1.45 L 2.067 1.449 Z M 0.001 19.45 L 0.003 19.448 C 1.586 16.049 1.748 12.474 1.656 8.857 C 1.622 7.58 1.835 6.353 2.34 5.186 C 2.408 5.026 2.486 4.87 2.571 4.696 C 2.609 4.618 2.65 4.537 2.692 4.45 C 2.793 4.574 2.893 4.694 2.991 4.813 C 3.297 5.18 3.589 5.532 3.869 5.895 C 3.928 5.974 3.927 6.167 3.877 6.263 C 2.897 8.134 4.136 10.049 6.164 10.194 C 6.224 10.199 6.283 10.211 6.341 10.227 L 6.4 10.242 C 6.588 11.121 6.232 11.616 5.492 11.946 C 5.127 12.109 4.785 12.329 4.418 12.565 C 4.243 12.679 4.068 12.789 3.89 12.898 C 4.048 12.993 4.205 13.09 4.361 13.188 C 4.692 13.395 5.006 13.591 5.337 13.75 C 6.285 14.203 6.954 14.948 7.317 15.922 C 7.8 17.217 8.237 18.531 8.674 19.844 C 8.829 20.31 8.983 20.775 9.14 21.24 C 9.161 21.299 9.179 21.359 9.198 21.419 C 9.286 21.687 9.373 21.958 9.54 22.221 C 9.628 21.92 9.711 21.619 9.795 21.317 C 9.981 20.649 10.166 19.981 10.38 19.323 C 10.725 18.265 11.104 17.218 11.515 16.183 C 11.963 15.06 12.676 14.173 13.778 13.663 C 14.067 13.528 14.34 13.36 14.639 13.178 C 14.789 13.084 14.94 12.993 15.092 12.904 C 14.894 12.784 14.705 12.662 14.521 12.545 C 14.116 12.285 13.734 12.041 13.327 11.857 C 12.6 11.532 12.439 10.992 12.566 10.255 C 12.672 10.231 12.779 10.211 12.887 10.189 C 13.127 10.143 13.368 10.096 13.602 10.019 C 15.134 9.518 15.813 8.042 15.183 6.517 C 15.023 6.128 15.05 5.89 15.335 5.599 C 15.555 5.372 15.749 5.117 15.957 4.842 C 16.051 4.716 16.149 4.587 16.254 4.454 C 16.753 5.28 17.079 6.151 17.174 7.074 C 17.284 8.126 17.301 9.191 17.299 10.248 C 17.294 12.201 17.359 14.146 17.875 16.033 C 18.091 16.823 18.357 17.598 18.63 18.392 C 18.754 18.75 18.878 19.112 19 19.481 L 17.859 18.529 L 17.815 18.492 L 16.535 17.424 L 15.25 19.573 L 14.64 20.594 C 13.979 19.952 13.318 19.31 12.658 18.668 L 11.444 20.709 L 11.434 20.726 C 10.795 21.802 10.152 22.884 9.487 24 C 8.822 22.882 8.169 21.787 7.514 20.685 L 7.502 20.665 L 6.313 18.669 C 5.892 19.077 5.486 19.471 5.069 19.875 L 5.067 19.877 L 4.33 20.594 L 3.615 19.395 L 3.614 19.394 L 3.602 19.373 C 3.218 18.729 2.835 18.088 2.441 17.425 L 1.857 17.909 C 1.23 18.429 0.616 18.939 0.003 19.448 L 0 19.454 L 0.001 19.449 Z M 12.49 12.9 L 12.493 12.898 L 12.491 12.901 Z M 12.491 12.901 C 12.491 12.9 12.49 12.9 12.49 12.9 Z M 9.586 17.728 L 9.487 18.047 C 9.443 17.91 9.4 17.774 9.357 17.639 L 9.356 17.637 C 8.757 15.741 8.192 13.955 6.36 12.838 C 7.64 12.569 7.705 11.674 7.715 10.684 C 7.721 9.944 8.011 9.271 8.566 8.758 C 9.171 8.198 9.784 8.19 10.388 8.746 C 11.059 9.366 11.331 10.193 11.276 11.075 C 11.224 11.902 11.481 12.421 12.215 12.706 C 12.271 12.727 12.32 12.766 12.383 12.817 C 12.414 12.843 12.45 12.871 12.491 12.901 C 10.751 13.98 10.189 15.787 9.586 17.728 Z M 7.386 8.565 C 6.646 9.004 5.735 8.953 5.201 8.455 C 4.76 8.045 4.72 7.557 4.971 6.984 L 5.915 7.602 L 5.915 7.603 Z M 11.587 8.567 C 11.986 8.304 12.383 8.043 12.784 7.779 L 13.995 6.981 L 13.995 6.982 C 14.239 7.566 14.209 8.052 13.762 8.462 C 13.226 8.952 12.323 9 11.587 8.567 Z" fill="black"></path></svg>